<svg id="Capa_1" enable-background="new 0 0 512 512" height="512" viewBox="0 0 512 512" width="512" xmlns="http://www.w3.org/2000/svg" xmlns:xlink="http://www.w3.org/1999/xlink"><linearGradient id="SVGID_1_" gradientUnits="userSpaceOnUse" x1="256" x2="256" y1="56" y2="456"><stop offset=".00000083866" stop-color="#96d1f3"/><stop offset="1" stop-color="#ccfff4"/></linearGradient><linearGradient id="SVGID_2_" gradientUnits="userSpaceOnUse" x1="256" x2="256" y1="0" y2="512"><stop offset=".00000011981" stop-color="#174fa3"/><stop offset="1" stop-color="#b044af"/></linearGradient><g><g><circle cx="256" cy="256" fill="url(#SVGID_1_)" r="200"/></g><path d="m150.202 39.318-6.592-13.474c4.606-2.254 9.346-4.395 14.085-6.364l5.756 13.852c-4.458 1.852-8.916 3.866-13.249 5.986zm105.798-24.318c33.813 0 66.237 6.747 96.583 20.054l-13.201 4.917 5.236 14.057 35.549-13.241-13.473-36.168-14.057 5.236 3.944 10.588c-31.664-13.564-65.421-20.443-100.581-20.443-18.246 0-36.447 1.916-54.098 5.695l3.141 14.668c16.62-3.559 33.765-5.363 50.957-5.363zm-65.076 8.838-4.025-14.45c-4.941 1.376-9.905 2.924-14.754 4.6l4.898 14.178c4.561-1.578 9.231-3.033 13.881-4.328zm158.904 454.294 5.836 13.818c4.719-1.993 9.444-4.162 14.046-6.445l-6.668-13.437c-4.33 2.149-8.775 4.189-13.214 6.064zm-27.416 9.654 4.109 14.426c4.936-1.406 9.891-2.982 14.728-4.685l-4.98-14.148c-4.551 1.601-9.213 3.084-13.857 4.407zm-66.412 9.214c-33.253 0-65.181-6.527-95.107-19.411l12.245-4.561-5.236-14.057-35.549 13.241 13.473 36.169 14.057-5.236-4.283-11.499c31.618 13.512 65.321 20.354 100.4 20.354 18.742 0 37.427-2.021 55.536-6.008l-3.225-14.649c-17.051 3.754-34.652 5.657-52.311 5.657zm-231.571-173.832-14.412 4.156c1.421 4.929 3.014 9.878 4.733 14.712l14.133-5.028c-1.618-4.547-3.117-9.203-4.454-13.84zm-4.054 33.266c1.946 4.564 4.053 9.126 6.261 13.56l13.428-6.687c-2.077-4.171-4.06-8.463-5.89-12.757zm-5.375-100.434c0-32.889 6.383-64.485 18.991-94.119l4.745 12.737 14.057-5.236-13.243-35.548-36.168 13.472 5.236 14.057 11.062-4.121c-13.057 31.138-19.68 64.282-19.68 98.758 0 19.026 2.082 37.986 6.188 56.353l14.639-3.272c-3.866-17.295-5.827-35.154-5.827-53.081zm476.702-100.245c-1.774-4.171-3.688-8.353-5.689-12.429l-13.465 6.608c1.882 3.835 3.683 7.769 5.352 11.693zm-4.08 33.263 14.416-4.147c-1.42-4.933-3.009-9.884-4.723-14.714l-14.137 5.017c1.614 4.544 3.109 9.202 4.444 13.844zm-24.122 66.982c0 114.416-93.084 207.5-207.5 207.5s-207.5-93.084-207.5-207.5 93.084-207.5 207.5-207.5 207.5 93.084 207.5 207.5zm-338.24-141.152c10.209 9.467 21.271 17.711 33.013 24.655 3.869-10.099 8.261-19.657 13.164-28.546 8.975-16.273 19.227-29.589 30.39-39.684-28.914 8.493-55.021 23.603-76.567 43.575zm-61.6 133.652h74.62c.668-33.651 5.818-65.922 14.942-94.568-13.775-7.88-26.707-17.406-38.567-28.464-30.148 32.62-49.17 75.656-50.995 123.032zm54.699 141.929c11.421-10.137 23.795-18.898 36.908-26.194-10.398-30.145-16.271-64.647-16.987-100.735h-74.62c1.898 49.288 22.412 93.878 54.699 126.929zm83.468 50.299c-11.163-10.096-21.415-23.411-30.39-39.684-3.932-7.13-7.538-14.69-10.808-22.613-11.083 6.334-21.581 13.808-31.342 22.356 20.741 18.174 45.405 31.97 72.54 39.941zm46.673-87.374c-26.091 1.001-51.354 7.216-74.514 18.132 3.188 7.842 6.719 15.303 10.586 22.314 17.617 31.944 40.083 50.889 63.929 54.183v-94.629zm0-89.854h-95.218c.693 33.658 6.038 65.766 15.478 93.862 24.82-11.509 51.847-18.025 79.739-19.017v-74.845zm0-82.572c-28.741-1.014-56.456-7.838-81.787-19.929-8.166 26.54-12.79 56.357-13.431 87.501h95.218zm0-116.91c-23.845 3.293-46.312 22.239-63.929 54.183-4.866 8.823-9.2 18.361-12.986 28.476 23.769 11.617 49.844 18.213 76.914 19.243v-101.902zm148.846 61.45c-11.86 11.058-24.793 20.585-38.567 28.464 9.123 28.646 14.274 60.917 14.942 94.568h74.62c-1.826-47.376-20.848-90.412-50.995-123.032zm-87.173-54.196c11.163 10.096 21.415 23.411 30.39 39.684 4.903 8.889 9.295 18.447 13.164 28.546 11.741-6.944 22.804-15.187 33.013-24.655-21.546-19.971-47.653-35.081-76.567-43.575zm-46.673 94.647c27.071-1.03 53.146-7.626 76.914-19.243-3.786-10.115-8.12-19.653-12.986-28.476-17.617-31.944-40.083-50.889-63.929-54.183v101.902zm0 82.581h95.218c-.641-31.144-5.264-60.961-13.431-87.501-25.332 12.091-53.046 18.915-81.787 19.929zm0 89.845c27.893.993 54.919 7.508 79.739 19.017 9.44-28.096 14.786-60.204 15.478-93.862h-95.217zm63.929 55.454c3.866-7.01 7.398-14.471 10.586-22.314-23.161-10.916-48.424-17.131-74.514-18.132v94.629c23.844-3.293 46.311-22.239 63.928-54.183zm55.284 6.987c-9.76-8.547-20.258-16.021-31.342-22.356-3.271 7.923-6.876 15.483-10.808 22.613-8.975 16.273-19.227 29.589-30.39 39.684 27.135-7.97 51.799-21.766 72.54-39.941zm65.627-137.286h-74.62c-.716 36.088-6.589 70.59-16.987 100.735 13.113 7.296 25.487 16.057 36.908 26.194 32.287-33.051 52.801-77.641 54.699-126.929zm43.997 91.225c13.045-31.133 19.663-64.265 19.663-98.725 0-18.957-2.067-37.85-6.145-56.154l-14.641 3.261c3.84 17.235 5.786 35.031 5.786 52.893 0 33.017-6.435 64.732-19.139 94.473l-4.825-13.07-14.072 5.194 13.138 35.587 36.208-13.367-5.195-14.071z" fill="url(#SVGID_2_)"/></g></svg>